<svg width="220" height="52" viewBox="0 0 220 52" fill="none" xmlns="http://www.w3.org/2000/svg">
<path d="M83.3191 23.4467C83.3191 27.2941 80.4749 29.6867 75.9178 29.6867H72.4813V32.447C72.4786 32.9682 72.2704 33.4672 71.9019 33.8362C71.5333 34.2052 71.0341 34.4145 70.5123 34.4187V34.4187C70.2512 34.4173 69.9929 34.3644 69.7522 34.2632C69.5116 34.162 69.2933 34.0143 69.1099 33.8287C68.9264 33.643 68.7815 33.4231 68.6834 33.1814C68.5852 32.9398 68.5358 32.6811 68.5379 32.4204V17.1587H75.9018C80.4589 17.1587 83.3191 19.546 83.3191 23.4467ZM79.3277 23.4467C79.3277 21.5496 78.111 20.4359 75.6991 20.4359H72.4974V26.4042H75.6991C78.095 26.4042 79.3117 25.2958 79.3117 23.4467H79.3277Z" fill="#0050F5"/>
<path d="M100.107 30.7205H92.1931L91.1259 33.273C90.99 33.6103 90.7565 33.8995 90.4552 34.1036C90.1539 34.3077 89.7984 34.4174 89.4343 34.4187V34.4187C89.1269 34.4155 88.8252 34.3359 88.5563 34.1871C88.2874 34.0384 88.0598 33.8251 87.894 33.5665C87.7283 33.308 87.6297 33.0123 87.607 32.7061C87.5843 32.4 87.6383 32.093 87.7641 31.8129L93.4578 18.9598C93.6911 18.4254 94.0753 17.9705 94.5633 17.6506C95.0514 17.3308 95.6222 17.1598 96.2059 17.1587V17.1587C96.7876 17.1601 97.3563 17.3307 97.8424 17.6496C98.3286 17.9685 98.7112 18.4219 98.9434 18.9545L104.594 31.7436C104.723 32.03 104.778 32.3438 104.754 32.6567C104.731 32.9696 104.63 33.2719 104.461 33.5362C104.292 33.8004 104.059 34.0185 103.784 34.1707C103.509 34.3229 103.201 34.4045 102.887 34.408V34.408C102.514 34.4059 102.15 34.2934 101.842 34.0847C101.533 33.876 101.293 33.5805 101.153 33.2357L100.107 30.7205ZM98.8634 27.7097L96.1633 21.0967L93.4578 27.7097H98.8634Z" fill="#0050F5"/>
<path d="M123.474 25.525C123.708 25.5222 123.941 25.5656 124.159 25.6528C124.376 25.74 124.575 25.8692 124.742 26.0331C124.91 26.1969 125.043 26.3922 125.135 26.6077C125.227 26.8232 125.275 27.0546 125.278 27.2888V32.2979C123.255 33.7014 120.846 34.446 118.383 34.4294C113.047 34.4294 109.082 30.8271 109.082 25.8021C109.082 20.777 113.026 17.1694 118.458 17.1694C120.4 17.1207 122.315 17.6352 123.97 18.6508C124.185 18.793 124.365 18.9823 124.496 19.2044C124.627 19.4265 124.706 19.6754 124.726 19.9323C124.746 20.1892 124.707 20.4473 124.612 20.6869C124.517 20.9266 124.369 21.1414 124.178 21.3152C123.896 21.5731 123.536 21.7289 123.155 21.7579C122.774 21.7869 122.394 21.6873 122.076 21.4751C121.078 20.7666 119.88 20.3934 118.655 20.4093C115.342 20.4093 113.074 22.5835 113.074 25.7381C113.074 28.8928 115.342 31.0669 118.607 31.0669C119.674 31.0882 120.73 30.8408 121.676 30.3475V27.2888C121.678 27.0551 121.726 26.8241 121.817 26.6089C121.909 26.3938 122.042 26.1987 122.209 26.035C122.376 25.8712 122.574 25.7418 122.791 25.6543C123.008 25.5668 123.24 25.5229 123.474 25.525V25.525Z" fill="#0050F5"/>
<path d="M151.473 31.1788C151.653 30.793 151.977 30.4931 152.376 30.3437C152.776 30.1942 153.218 30.2071 153.607 30.3795C154.933 30.9826 156.371 31.3021 157.828 31.3174C160.165 31.3174 161.115 30.5554 161.115 29.5269C161.115 26.4042 151.201 28.5517 151.201 22.3543C151.201 19.5141 153.543 17.1588 158.388 17.1588C159.909 17.148 161.42 17.4078 162.85 17.9261C163.045 17.9969 163.225 18.1064 163.378 18.2482C163.53 18.3899 163.652 18.561 163.737 18.7511C163.822 18.9411 163.867 19.1464 163.871 19.3544C163.874 19.5624 163.835 19.769 163.757 19.9617L163.714 20.0576C163.546 20.4364 163.237 20.7353 162.853 20.8913C162.469 21.0474 162.039 21.0485 161.654 20.8943C160.606 20.4803 159.489 20.2635 158.362 20.2548C156.025 20.2548 155.123 21.1127 155.123 22.1625C155.123 25.2372 165.037 23.1164 165.037 29.2392C165.037 32.0314 162.673 34.4134 157.801 34.4134C155.908 34.421 154.032 34.0439 152.289 33.305C152.095 33.2202 151.919 33.0976 151.773 32.9444C151.626 32.7911 151.511 32.6104 151.435 32.4125C151.36 32.2147 151.324 32.0037 151.33 31.7919C151.337 31.5802 151.385 31.3717 151.473 31.1788V31.1788Z" fill="#0050F5"/>
<path d="M182.631 28.9567C182.631 31.8183 180.379 34.44 175.448 34.44C173.718 34.4449 172.004 34.1137 170.4 33.4649C170.189 33.3767 169.999 33.2456 169.841 33.0798C169.684 32.914 169.563 32.7172 169.486 32.502C169.409 32.2868 169.378 32.058 169.395 31.8301C169.412 31.6023 169.476 31.3804 169.584 31.1788C169.795 30.7955 170.142 30.5052 170.557 30.3651C170.972 30.225 171.424 30.2453 171.825 30.4221C172.94 30.8966 174.14 31.1413 175.352 31.1415C177.359 31.1415 178.597 30.3369 178.597 28.9567C178.597 27.6725 177.631 26.8732 175.352 26.8732C175.112 26.8774 174.874 26.8342 174.651 26.7461C174.428 26.658 174.224 26.5268 174.052 26.3599C173.88 26.193 173.743 25.9937 173.648 25.7736C173.554 25.5535 173.503 25.3169 173.501 25.0773V24.9548C173.503 24.5159 173.666 24.093 173.959 23.7665L177.07 20.3241H171.313C170.888 20.3241 170.481 20.1556 170.181 19.8558C169.881 19.556 169.712 19.1494 169.712 18.7254C169.712 18.3014 169.881 17.8948 170.181 17.595C170.481 17.2952 170.888 17.1268 171.313 17.1268H179.952C180.448 17.1225 180.925 17.3148 181.279 17.6614C181.633 18.008 181.835 18.4807 181.841 18.9759V18.9759C181.84 19.4264 181.673 19.8609 181.371 20.1962L177.924 24.0329C181.046 24.5658 182.631 26.4575 182.631 28.9567Z" fill="#0050F5"/>
<path d="M201.046 28.8608C201.046 32.2712 198.196 34.4134 194.594 34.4134C189.893 34.4134 186.969 31.5305 186.969 26.1431C186.969 20.372 190.528 17.1534 195.667 17.1534C196.692 17.1494 197.712 17.2875 198.698 17.5637C198.92 17.6284 199.124 17.7412 199.297 17.8941C199.469 18.0471 199.606 18.2363 199.697 18.4482C199.788 18.6601 199.83 18.8895 199.822 19.1198C199.813 19.3502 199.754 19.5758 199.648 19.7805V19.7805C199.469 20.1162 199.177 20.3785 198.824 20.5216C198.471 20.6647 198.079 20.6797 197.716 20.5638C197.08 20.3821 196.42 20.2941 195.758 20.3027C192.908 20.3027 191.083 21.944 190.955 25.1413C191.525 24.6308 192.191 24.2377 192.913 23.9844C193.636 23.7311 194.401 23.6227 195.165 23.6652C198.469 23.6652 201.046 25.7115 201.046 28.8608ZM197.225 29.0526C197.225 27.5232 196.078 26.5481 194.328 26.5481C192.577 26.5481 191.377 27.6138 191.377 29.0526C191.377 30.4914 192.476 31.5305 194.376 31.5305C196.057 31.5305 197.225 30.5766 197.225 29.0526V29.0526Z" fill="#0050F5"/>
<path d="M205.384 25.786C205.384 20.276 208.501 17.1533 212.689 17.1533C216.878 17.1533 220 20.276 220 25.786C220 31.296 216.905 34.4133 212.689 34.4133C208.474 34.4133 205.384 31.2906 205.384 25.786ZM216.03 25.786C216.03 21.9919 214.664 20.4199 212.689 20.4199C210.715 20.4199 209.381 22.0185 209.381 25.786C209.381 29.5534 210.742 31.1467 212.689 31.1467C214.637 31.1467 216.03 29.5748 216.03 25.786Z" fill="#0050F5"/>
<path d="M138.228 17.1321C136.518 17.1321 134.845 17.6387 133.423 18.5878C132 19.537 130.892 20.8861 130.237 22.4645C129.582 24.0428 129.411 25.7796 129.745 27.4553C130.078 29.1309 130.902 30.67 132.112 31.878C133.322 33.0861 134.863 33.9088 136.541 34.2421C138.219 34.5754 139.958 34.4043 141.539 33.7505C143.119 33.0967 144.47 31.9896 145.421 30.5691C146.371 29.1486 146.878 27.4785 146.878 25.7701C146.879 24.6355 146.656 23.5119 146.221 22.4636C145.787 21.4153 145.15 20.4628 144.346 19.6605C143.543 18.8583 142.589 18.222 141.539 17.7882C140.49 17.3543 139.364 17.1314 138.228 17.1321V17.1321ZM138.228 30.8591C137.22 30.8591 136.235 30.5606 135.397 30.0014C134.559 29.4422 133.906 28.6474 133.52 27.7175C133.135 26.7876 133.034 25.7644 133.23 24.7772C133.427 23.7901 133.912 22.8833 134.625 22.1716C135.338 21.4599 136.246 20.9752 137.234 20.7788C138.223 20.5825 139.247 20.6833 140.179 21.0684C141.11 21.4536 141.906 22.1059 142.466 22.9428C143.026 23.7796 143.324 24.7636 143.324 25.7701C143.323 27.1193 142.786 28.4129 141.83 29.367C140.875 30.321 139.579 30.8577 138.228 30.8591V30.8591Z" fill="#0050F5"/>
<path d="M51.302 11.8672C51.302 8.72354 50.0529 5.70829 47.8289 3.48336C45.6049 1.25843 42.5877 0.00564651 39.4397 0H11.8783C8.72751 0.00141287 5.70623 1.25233 3.47876 3.47772C1.25129 5.7031 -3.17653e-07 8.72077 0 11.8672V23.3934C-3.17653e-07 26.5399 1.25129 29.5576 3.47876 31.7829C5.70623 34.0083 8.72751 35.2592 11.8783 35.2607H13.2978V39.3798C13.2963 42.523 14.5442 45.5383 16.7674 47.7634C18.9906 49.9885 22.0072 51.2414 25.1547 51.2471H39.4397C42.5877 51.2414 45.6049 49.9886 47.8289 47.7637C50.0529 45.5388 51.302 42.5235 51.302 39.3798V11.8672ZM20.3522 35.2607H28.3565C30.9233 35.2536 33.3827 34.2304 35.1952 32.4153C37.0078 30.6003 38.0256 28.1416 38.0256 25.5782C38.0242 23.0163 37.0056 20.5595 35.193 18.7465C33.3804 16.9334 30.9219 15.9121 28.3565 15.9065H20.4269C18.5375 15.9079 16.7258 16.6577 15.3893 17.9913C14.0528 19.325 13.3006 21.1336 13.2978 23.0204V28.2107H12.9989C11.4238 28.2107 9.91312 27.5858 8.79931 26.4735C7.6855 25.3613 7.05977 23.8527 7.05977 22.2797V12.981C7.05977 11.408 7.6855 9.89941 8.79931 8.78714C9.91312 7.67487 11.4238 7.05 12.9989 7.05H38.3191C39.8943 7.05 41.4049 7.67487 42.5187 8.78714C43.6325 9.89941 44.2583 11.408 44.2583 12.981V38.2608C44.2583 39.8338 43.6325 41.3423 42.5187 42.4546C41.4049 43.5669 39.8943 44.1917 38.3191 44.1917H26.2967C25.5163 44.1924 24.7434 44.0395 24.0222 43.7418C23.301 43.444 22.6457 43.0073 22.0936 42.4565C21.5415 41.9057 21.1036 41.2516 20.8048 40.5317C20.506 39.8118 20.3522 39.0401 20.3522 38.2608V35.2607ZM28.3565 28.2107H20.3522V24.6191C20.3515 24.401 20.3939 24.1849 20.477 23.9832C20.5601 23.7815 20.6822 23.5982 20.8364 23.4437C20.9905 23.2893 21.1737 23.1667 21.3754 23.0831C21.5771 22.9995 21.7934 22.9565 22.0117 22.9565H28.3565C29.0486 22.9635 29.7101 23.2426 30.1976 23.7334C30.685 24.2242 30.9591 24.887 30.9605 25.5782V25.5782C30.962 26.2713 30.6891 26.9369 30.2013 27.43C29.7136 27.923 29.0505 28.2036 28.3565 28.2107V28.2107Z" fill="url(#paint0_linear_1513_2110)"/>
<path d="M12.9989 28.2107C11.4238 28.2107 9.91312 27.5858 8.79931 26.4735C7.6855 25.3613 7.05976 23.8527 7.05976 22.2797V16.1516H0V23.3934C-3.17653e-07 26.5399 1.25129 29.5576 3.47876 31.783C5.70623 34.0084 8.72751 35.2593 11.8783 35.2607H13.2978V28.2107H12.9989Z" fill="url(#paint1_linear_1513_2110)"/>
<path d="M28.4312 28.2107H20.3522V35.2607H28.4312V28.2107Z" fill="url(#paint2_linear_1513_2110)"/>
<defs>
<linearGradient id="paint0_linear_1513_2110" x1="-1.28068" y1="-7.91859" x2="60.3468" y2="53.7943" gradientUnits="userSpaceOnUse">
<stop stop-color="#00E5F5"/>
<stop offset="0.5" stop-color="#0050F5"/>
<stop offset="1" stop-color="#0036A3"/>
</linearGradient>
<linearGradient id="paint1_linear_1513_2110" x1="-2.39594" y1="19.7859" x2="16.0384" y2="30.4442" gradientUnits="userSpaceOnUse">
<stop offset="0.4" stop-color="#0050F5" stop-opacity="0"/>
<stop offset="1" stop-color="#0036A3"/>
</linearGradient>
<linearGradient id="paint2_linear_1513_2110" x1="19.7225" y1="29.042" x2="28.3612" y2="34.0348" gradientUnits="userSpaceOnUse">
<stop offset="0.08" stop-color="#0036A3"/>
<stop offset="0.16" stop-color="#0037A8" stop-opacity="0.95"/>
<stop offset="0.3" stop-color="#003BB4" stop-opacity="0.8"/>
<stop offset="0.48" stop-color="#0042C8" stop-opacity="0.55"/>
<stop offset="0.69" stop-color="#004AE3" stop-opacity="0.22"/>
<stop offset="0.81" stop-color="#0050F5" stop-opacity="0"/>
</linearGradient>
</defs>
</svg>
