<svg id="logo-azul-horizontal-pagos360" xmlns="http://www.w3.org/2000/svg" xmlns:xlink="http://www.w3.org/1999/xlink" viewBox="0 0 412.28 96.17"><defs><style>.cls-1{fill:#0050f5;}.cls-2{fill:url(#linear-gradient);}.cls-3{fill:url(#linear-gradient-2);}.cls-4{fill:url(#linear-gradient-3);}</style><linearGradient id="linear-gradient" x1="-0.54" y1="-12.86" x2="115.11" y2="102.79" gradientUnits="userSpaceOnUse"><stop offset="0" stop-color="#00e5f5"/><stop offset="0.5" stop-color="#0050f5"/><stop offset="1" stop-color="#0036a3"/></linearGradient><linearGradient id="linear-gradient-2" x1="-2.63" y1="39.13" x2="31.94" y2="59.09" gradientUnits="userSpaceOnUse"><stop offset="0.4" stop-color="#0050f5" stop-opacity="0"/><stop offset="1" stop-color="#0036a3"/></linearGradient><linearGradient id="linear-gradient-3" x1="36.96" y1="54.5" x2="53.16" y2="63.85" gradientUnits="userSpaceOnUse"><stop offset="0.08" stop-color="#0036a3"/><stop offset="0.16" stop-color="#0037a8" stop-opacity="0.95"/><stop offset="0.3" stop-color="#003bb4" stop-opacity="0.8"/><stop offset="0.48" stop-color="#0042c8" stop-opacity="0.55"/><stop offset="0.69" stop-color="#004ae3" stop-opacity="0.22"/><stop offset="0.81" stop-color="#0050f5" stop-opacity="0"/></linearGradient></defs><title>logo-azul-horizontal-pagos360</title><path class="cls-1" d="M158,46c0,7.22-5.33,11.71-13.87,11.71h-6.44v5.18A3.72,3.72,0,0,1,134,66.59h0a3.72,3.72,0,0,1-3.7-3.75V34.2H144.1C152.64,34.2,158,38.68,158,46Zm-7.48,0c0-3.56-2.28-5.65-6.8-5.65h-6V51.55h6C148.21,51.55,150.49,49.47,150.49,46Z" transform="translate(-1.86 -2)"/><path class="cls-1" d="M189.46,59.65H174.63l-2,4.79a3.43,3.43,0,0,1-3.17,2.15h0a3.47,3.47,0,0,1-3.13-4.89L177,37.58a5.63,5.63,0,0,1,5.15-3.38h0a5.61,5.61,0,0,1,5.13,3.37l10.59,24a3.55,3.55,0,0,1-3.2,5h0a3.53,3.53,0,0,1-3.25-2.2ZM187.13,54l-5.06-12.41L177,54Z" transform="translate(-1.86 -2)"/><path class="cls-1" d="M233.25,49.9h0a3.34,3.34,0,0,1,3.38,3.31v9.4a22.38,22.38,0,0,1-12.92,4c-10,0-17.43-6.76-17.43-16.19s7.39-16.2,17.57-16.2A18.83,18.83,0,0,1,234.18,37a3.18,3.18,0,0,1,.39,5h0a3.2,3.2,0,0,1-3.94.3,10.82,10.82,0,0,0-6.41-2c-6.21,0-10.46,4.08-10.46,10s4.25,10,10.37,10a11.91,11.91,0,0,0,5.75-1.35V53.21A3.34,3.34,0,0,1,233.25,49.9Z" transform="translate(-1.86 -2)"/><path class="cls-1" d="M285.72,60.51h0a3.05,3.05,0,0,1,4-1.5,19.58,19.58,0,0,0,7.91,1.76c4.38,0,6.16-1.43,6.16-3.36,0-5.86-18.58-1.83-18.58-13.46,0-5.33,4.39-9.75,13.47-9.75a24,24,0,0,1,8.36,1.44,2.9,2.9,0,0,1,1.7,3.82l-.08.18a3,3,0,0,1-3.86,1.57,17.14,17.14,0,0,0-6.17-1.2c-4.38,0-6.07,1.61-6.07,3.58,0,5.77,18.58,1.79,18.58,13.28,0,5.24-4.43,9.71-13.56,9.71a26.17,26.17,0,0,1-10.33-2.08A3,3,0,0,1,285.72,60.51Z" transform="translate(-1.86 -2)"/><path class="cls-1" d="M344.11,56.34c0,5.37-4.22,10.29-13.46,10.29a25,25,0,0,1-9.46-1.83,3.08,3.08,0,0,1-1.53-4.29h0a3.28,3.28,0,0,1,4.2-1.42,16.87,16.87,0,0,0,6.61,1.35c3.76,0,6.08-1.51,6.08-4.1,0-2.41-1.81-3.91-6.08-3.91h0A3.41,3.41,0,0,1,327,49.06v-.23a3.36,3.36,0,0,1,.86-2.23l5.83-6.46H322.9a3,3,0,0,1-3-3h0a3,3,0,0,1,3-3h16.19a3.51,3.51,0,0,1,3.54,3.47h0a3.44,3.44,0,0,1-.88,2.29l-6.46,7.2C341.14,48.1,344.11,51.65,344.11,56.34Z" transform="translate(-1.86 -2)"/><path class="cls-1" d="M378.62,56.16c0,6.4-5.34,10.42-12.09,10.42-8.81,0-14.29-5.41-14.29-15.52,0-10.83,6.67-16.87,16.3-16.87a20.74,20.74,0,0,1,5.68.77A2.93,2.93,0,0,1,376,39.12h0a3.05,3.05,0,0,1-3.62,1.47,12.75,12.75,0,0,0-3.67-.49c-5.34,0-8.76,3.08-9,9.08a10.91,10.91,0,0,1,7.89-2.77C373.79,46.41,378.62,50.25,378.62,56.16Zm-7.16.36c0-2.87-2.15-4.7-5.43-4.7s-5.53,2-5.53,4.7,2.06,4.65,5.62,4.65C369.27,61.17,371.46,59.38,371.46,56.52Z" transform="translate(-1.86 -2)"/><path class="cls-1" d="M386.75,50.39c0-10.34,5.84-16.2,13.69-16.2s13.7,5.86,13.7,16.2-5.8,16.19-13.7,16.19S386.75,60.72,386.75,50.39Zm19.95,0c0-7.12-2.56-10.07-6.26-10.07s-6.2,3-6.2,10.07,2.55,10.06,6.2,10.06S406.7,57.5,406.7,50.39Z" transform="translate(-1.86 -2)"/><path class="cls-1" d="M260.9,34.15a16.21,16.21,0,1,0,16.21,16.21A16.2,16.2,0,0,0,260.9,34.15Zm0,25.76a9.55,9.55,0,1,1,9.55-9.55A9.56,9.56,0,0,1,260.9,59.91Z" transform="translate(-1.86 -2)"/><path class="cls-2" d="M98,24.27A22.27,22.27,0,0,0,75.77,2H24.12A22.27,22.27,0,0,0,1.86,24.27V45.9A22.27,22.27,0,0,0,24.12,68.17h2.66V75.9A22.26,22.26,0,0,0,49,98.17H75.77A22.27,22.27,0,0,0,98,75.9V24.27M40,68.17H55A18.17,18.17,0,0,0,73.12,50h0A18.16,18.16,0,0,0,55,31.85H40.14A13.37,13.37,0,0,0,26.78,45.2v9.74h-.56A11.13,11.13,0,0,1,15.09,43.81V26.36A11.13,11.13,0,0,1,26.22,15.23H73.67A11.13,11.13,0,0,1,84.8,26.36V73.8A11.13,11.13,0,0,1,73.67,84.93H51.14A11.13,11.13,0,0,1,40,73.8ZM55,54.94H40V48.2a3.11,3.11,0,0,1,3.11-3.12H55A4.93,4.93,0,0,1,59.88,50h0A4.93,4.93,0,0,1,55,54.94Z" transform="translate(-1.86 -2)"/><path class="cls-3" d="M26.22,54.94A11.13,11.13,0,0,1,15.09,43.81V32.31H1.86V45.9A22.27,22.27,0,0,0,24.12,68.17h2.66V54.94Z" transform="translate(-1.86 -2)"/><rect class="cls-4" x="38.14" y="52.94" width="15.14" height="13.23"/></svg>